<svg width="288" height="140" viewBox="0 0 288 140" fill="none" xmlns="http://www.w3.org/2000/svg">
<path d="M287.5 3.32031V136.621H247.852V3.32031H287.5Z" fill="white"/>
<path d="M225 3.32031V93.1641C225 106.706 221.159 117.904 213.477 126.758C205.794 135.547 196.061 139.941 184.277 139.941C180.827 139.941 176.79 139.193 172.168 137.695V99.3164C174.121 100.163 175.911 100.586 177.539 100.586C182.747 100.586 185.352 96.3867 185.352 87.9883V3.32031H225Z" fill="white"/>
<path d="M160.156 3.32031V136.621H120.508V3.32031H160.156Z" fill="white"/>
<path d="M0 136.621V50.0977C0 34.9284 4.52474 22.7865 13.5742 13.6719C22.6888 4.55729 34.7982 0 49.9023 0C64.9414 0 76.4323 4.42708 84.375 13.2812C92.3828 22.1354 96.3867 34.8633 96.3867 51.4648V136.621H56.7383V51.4648C56.7383 43.3268 53.8411 39.2578 48.0469 39.2578C42.4479 39.2578 39.6484 43.3268 39.6484 51.4648V136.621H0Z" fill="white"/>
</svg>
