<svg width="230" height="112" viewBox="0 0 230 112" fill="none" xmlns="http://www.w3.org/2000/svg">
<path d="M230 2.65625V109.297H198.281V2.65625H230Z" fill="white"/>
<path d="M180 2.65625V74.5312C180 85.3646 176.927 94.3229 170.781 101.406C164.635 108.438 156.849 111.953 147.422 111.953C144.661 111.953 141.432 111.354 137.734 110.156V79.4531C139.297 80.1302 140.729 80.4688 142.031 80.4688C146.198 80.4688 148.281 77.1094 148.281 70.3906V2.65625H180Z" fill="white"/>
<path d="M128.125 2.65625V109.297H96.4062V2.65625H128.125Z" fill="white"/>
<path d="M0 109.297V40.0781C0 27.9427 3.61979 18.2292 10.8594 10.9375C18.151 3.64583 27.8385 0 39.9219 0C51.9531 0 61.1458 3.54167 67.5 10.625C73.9062 17.7083 77.1094 27.8906 77.1094 41.1719V109.297H45.3906V41.1719C45.3906 34.6615 43.0729 31.4062 38.4375 31.4062C33.9583 31.4062 31.7188 34.6615 31.7188 41.1719V109.297H0Z" fill="white"/>
</svg>
