<svg width="1285" height="250" viewBox="0 0 1285 250" fill="none" xmlns="http://www.w3.org/2000/svg">
<path d="M758.5 58.3203V191.621H718.852V58.3203H758.5Z" fill="white"/>
<path d="M696 58.3203V148.164C696 161.706 692.159 172.904 684.477 181.758C676.794 190.547 667.061 194.941 655.277 194.941C651.827 194.941 647.79 194.193 643.168 192.695V154.316C645.121 155.163 646.911 155.586 648.539 155.586C653.747 155.586 656.352 151.387 656.352 142.988V58.3203H696Z" fill="white"/>
<path d="M631.156 58.3203V191.621H591.508V58.3203H631.156Z" fill="white"/>
<path d="M471 191.621V105.098C471 89.9284 475.525 77.7865 484.574 68.6719C493.689 59.5573 505.798 55 520.902 55C535.941 55 547.432 59.4271 555.375 68.2812C563.383 77.1354 567.387 89.8633 567.387 106.465V191.621H527.738V106.465C527.738 98.3268 524.841 94.2578 519.047 94.2578C513.448 94.2578 510.648 98.3268 510.648 106.465V191.621H471Z" fill="white"/>
</svg>
