<svg width="1285" height="250" viewBox="0 0 1285 250" fill="none" xmlns="http://www.w3.org/2000/svg">
<path d="M1248.3 110.176V139.863H1222.43C1218.91 139.863 1216.4 140.384 1214.91 141.426C1213.47 142.467 1212.76 144.225 1212.76 146.699C1212.76 149.499 1213.51 151.354 1215 152.266C1216.5 153.112 1219.56 153.535 1224.18 153.535H1250.84V191.621H1219.69C1205.04 191.621 1193.85 188.138 1186.1 181.172C1178.35 174.141 1174.48 164.017 1174.48 150.801V98.5547C1174.48 85.7943 1178.12 75.8984 1185.41 68.8672C1192.77 61.8359 1203.09 58.3203 1216.37 58.3203H1250.84V96.6016H1225.55C1218.71 96.6016 1215.3 98.8151 1215.3 103.242C1215.3 105.846 1216.11 107.669 1217.74 108.711C1219.37 109.688 1222.26 110.176 1226.43 110.176H1248.3Z" fill="white"/>
<path d="M1097.13 94.1602V191.621H1057.48V58.3203H1108.36C1123.86 58.3203 1135.87 62.1615 1144.4 69.8438C1153.9 78.4375 1158.66 89.3424 1158.66 102.559C1158.66 116.035 1152.76 127.396 1140.98 136.641L1163.83 191.621H1122.23L1102.99 148.652V114.375H1106.12C1114.45 114.375 1118.62 110.794 1118.62 103.633C1118.62 97.3177 1113.8 94.1602 1104.16 94.1602H1097.13Z" fill="white"/>
<path d="M969.887 55C988.767 55 1004.95 61.8685 1018.42 75.6055C1031.96 89.3424 1038.73 105.781 1038.73 124.922C1038.73 144.388 1031.93 160.924 1018.32 174.531C1004.72 188.138 988.181 194.941 968.715 194.941C949.379 194.941 932.875 188.105 919.203 174.434C905.531 160.762 898.695 144.258 898.695 124.922C898.695 105.391 905.564 88.8542 919.301 75.3125C933.103 61.7708 949.965 55 969.887 55ZM968.715 94.2578C960.577 94.2578 953.643 97.2526 947.914 103.242C942.185 109.232 939.32 116.458 939.32 124.922C939.32 133.385 942.185 140.612 947.914 146.602C953.708 152.591 960.642 155.586 968.715 155.586C976.918 155.586 983.852 152.624 989.516 146.699C995.245 140.71 998.109 133.451 998.109 124.922C998.109 116.393 995.245 109.167 989.516 103.242C983.852 97.2526 976.918 94.2578 968.715 94.2578Z" fill="white"/>
<path d="M741.469 191.621V95.5273C741.469 83.6133 745.082 73.8802 752.309 66.3281C759.535 58.776 768.91 55 780.434 55C794.105 55 804.62 61.2826 811.977 73.8477C816.469 67.0768 821.286 62.2591 826.43 59.3945C831.573 56.4648 837.921 55 845.473 55C857.452 55 866.632 58.776 873.012 66.3281C879.392 73.8802 882.582 84.7526 882.582 98.9453V191.621H842.934V104.902C842.934 100.605 842.576 97.7734 841.859 96.4062C841.208 94.974 839.841 94.2578 837.758 94.2578C833.852 94.2578 831.898 97.5781 831.898 104.219V191.621H792.25V104.902C792.25 100.671 791.892 97.8385 791.176 96.4062C790.46 94.974 789.06 94.2578 786.977 94.2578C783.07 94.2578 781.117 97.806 781.117 104.902V191.621H741.469Z" fill="white"/>
<path d="M677.992 116.914H715.785C723.923 127.005 727.992 137.65 727.992 148.848C727.992 161.868 723.207 172.806 713.637 181.66C704.132 190.514 692.413 194.941 678.48 194.941C660.382 194.941 645.017 188.073 632.387 174.336C619.757 160.599 613.441 143.867 613.441 124.141C613.441 104.349 619.854 87.8776 632.68 74.7266C645.57 61.5755 661.651 55 680.922 55C687.497 55 694.789 56.3346 702.797 59.0039V98.6523C696.547 95.7227 690.85 94.2578 685.707 94.2578C676.397 94.2578 668.78 97.1549 662.855 102.949C656.996 108.743 654.066 116.263 654.066 125.508C654.066 134.948 656.801 142.435 662.27 147.969C667.738 153.503 675.128 156.27 684.438 156.27C690.362 156.27 693.324 154.544 693.324 151.094C693.324 148.49 691.371 147.188 687.465 147.188H677.992V116.914Z" fill="white"/>
<path d="M501.039 191.621V105.098C501.039 89.9284 505.564 77.7865 514.613 68.6719C523.728 59.5573 535.837 55 550.941 55C565.98 55 577.471 59.4271 585.414 68.2812C593.422 77.1354 597.426 89.8633 597.426 106.465V191.621H557.777V106.465C557.777 98.3268 554.88 94.2578 549.086 94.2578C543.487 94.2578 540.688 98.3268 540.688 106.465V191.621H501.039Z" fill="white"/>
<path d="M477.016 58.3203V191.621H437.367V58.3203H477.016Z" fill="white"/>
<path d="M430.727 58.3203L393.031 117.598V191.621H353.383V117.598L315.395 58.3203H355.629L372.816 85.7617L391.273 58.3203H430.727Z" fill="white"/>
<path d="M266.762 124.727V159.883H255.336V191.621H215.688V106.855C215.688 90.4492 220.147 77.7214 229.066 68.6719C238.051 59.5573 250.648 55 266.859 55C282.484 55 294.04 59.1341 301.527 67.4023C309.014 75.6055 312.758 88.3008 312.758 105.488V191.621H273.109V108.125C273.109 102.917 272.491 99.3034 271.254 97.2852C270.017 95.2669 267.803 94.2578 264.613 94.2578C258.428 94.2578 255.336 98.8802 255.336 108.125V124.727H266.762Z" fill="white"/>
<path d="M148.5 58.3203H188.148V137.52C188.148 143.704 189.125 147.839 191.078 149.922C193.096 151.94 197.035 152.949 202.895 152.949H204.945V191.621H194.398C179.945 191.621 168.682 187.422 160.609 179.023C152.536 170.56 148.5 158.841 148.5 143.867V58.3203Z" fill="white"/>
<path d="M82.0938 145.527V110.566C90.1016 110.566 94.1055 107.507 94.1055 101.387C94.1055 95.7878 91.0456 92.9883 84.9258 92.9883C78.7409 92.9883 75.6484 96.8294 75.6484 104.512V191.621H36V108.613C36 100.02 36.8464 92.9883 38.5391 87.5195C40.2969 81.9857 43.2591 76.8424 47.4258 72.0898C52.1133 66.8164 57.9727 62.6497 65.0039 59.5898C72.0352 56.5299 79.2943 55 86.7812 55C100.323 55 111.684 59.5573 120.863 68.6719C130.108 77.7865 134.73 89.082 134.73 102.559C134.73 115.645 130.596 126.257 122.328 134.395C114.776 141.882 103.383 145.625 88.1484 145.625L82.0938 145.527Z" fill="white"/>
</svg>
