<svg width="1580" height="182" viewBox="0 0 1580 182" fill="none" xmlns="http://www.w3.org/2000/svg">
<path d="M1576 71.7324V110.326H1542.35C1537.78 110.326 1534.52 111.003 1532.58 112.357C1530.72 113.712 1529.79 115.997 1529.79 119.213C1529.79 122.852 1530.76 125.264 1532.71 126.449C1534.65 127.549 1538.63 128.1 1544.64 128.1H1579.3V177.611H1538.8C1519.76 177.611 1505.2 173.083 1495.13 164.027C1485.06 154.887 1480.02 141.726 1480.02 124.545V56.625C1480.02 40.0365 1484.76 27.1719 1494.24 18.0312C1503.8 8.89062 1517.22 4.32031 1534.48 4.32031H1579.3V54.0859H1546.42C1537.53 54.0859 1533.09 56.9635 1533.09 62.7188C1533.09 66.1042 1534.14 68.474 1536.26 69.8281C1538.38 71.0977 1542.14 71.7324 1547.56 71.7324H1576Z" fill="white"/>
<path d="M1379.47 50.9121V177.611H1327.93V4.32031H1394.07C1414.22 4.32031 1429.83 9.3138 1440.92 19.3008C1453.27 30.4727 1459.45 44.6491 1459.45 61.8301C1459.45 79.3496 1451.79 94.1185 1436.47 106.137L1466.18 177.611H1412.1L1387.09 121.752V77.1914H1391.15C1401.99 77.1914 1407.4 72.5365 1407.4 63.2266C1407.4 55.0169 1401.14 50.9121 1388.61 50.9121H1379.47Z" fill="white"/>
<path d="M1214.05 0C1238.6 0 1259.63 8.92904 1277.15 26.7871C1294.75 44.6452 1303.55 66.0156 1303.55 90.8984C1303.55 116.204 1294.71 137.702 1277.02 155.391C1259.33 173.079 1237.84 181.924 1212.53 181.924C1187.39 181.924 1165.94 173.037 1148.16 155.264C1130.39 137.49 1121.5 116.035 1121.5 90.8984C1121.5 65.5078 1130.43 44.0104 1148.29 26.4062C1166.23 8.80208 1188.15 0 1214.05 0ZM1212.53 51.0352C1201.95 51.0352 1192.94 54.9284 1185.49 62.7148C1178.04 70.5013 1174.32 79.8958 1174.32 90.8984C1174.32 101.901 1178.04 111.296 1185.49 119.082C1193.02 126.868 1202.03 130.762 1212.53 130.762C1223.19 130.762 1232.21 126.911 1239.57 119.209C1247.02 111.423 1250.74 101.986 1250.74 90.8984C1250.74 79.8112 1247.02 70.4167 1239.57 62.7148C1232.21 54.9284 1223.19 51.0352 1212.53 51.0352Z" fill="white"/>
<path d="M917.109 177.607V52.6855C917.109 37.1973 921.807 24.5443 931.201 14.7266C940.596 4.90885 952.783 0 967.764 0C985.537 0 999.206 8.16732 1008.77 24.502C1014.61 15.6999 1020.87 9.43685 1027.56 5.71289C1034.24 1.9043 1042.5 0 1052.31 0C1067.89 0 1079.82 4.90885 1088.12 14.7266C1096.41 24.5443 1100.56 38.6784 1100.56 57.1289V177.607H1049.01V64.873C1049.01 59.2871 1048.55 55.6055 1047.62 53.8281C1046.77 51.9661 1044.99 51.0352 1042.29 51.0352C1037.21 51.0352 1034.67 55.3516 1034.67 63.9844V177.607H983.125V64.873C983.125 59.3717 982.66 55.6901 981.729 53.8281C980.798 51.9661 978.978 51.0352 976.27 51.0352C971.191 51.0352 968.652 55.6478 968.652 64.873V177.607H917.109Z" fill="white"/>
<path d="M834.59 80.4883H883.721C894.3 93.6068 899.59 107.445 899.59 122.002C899.59 138.929 893.369 153.148 880.928 164.658C868.571 176.169 853.337 181.924 835.225 181.924C811.696 181.924 791.722 172.995 775.303 155.137C758.883 137.279 750.674 115.527 750.674 89.8828C750.674 64.1536 759.01 42.7409 775.684 25.6445C792.441 8.54818 813.346 0 838.398 0C846.947 0 856.426 1.73503 866.836 5.20508V56.748C858.711 52.9395 851.305 51.0352 844.619 51.0352C832.516 51.0352 822.614 54.8014 814.912 62.334C807.295 69.8665 803.486 79.6419 803.486 91.6602C803.486 103.932 807.041 113.665 814.15 120.859C821.26 128.053 830.866 131.65 842.969 131.65C850.671 131.65 854.521 129.408 854.521 124.922C854.521 121.536 851.982 119.844 846.904 119.844H834.59V80.4883Z" fill="white"/>
<path d="M604.551 177.607V65.127C604.551 45.4069 610.433 29.6224 622.197 17.7734C634.046 5.92448 649.788 0 669.424 0C688.975 0 703.913 5.75521 714.238 17.2656C724.648 28.776 729.854 45.3223 729.854 66.9043V177.607H678.311V66.9043C678.311 56.3249 674.544 51.0352 667.012 51.0352C659.733 51.0352 656.094 56.3249 656.094 66.9043V177.607H604.551Z" fill="white"/>
<path d="M573.32 4.32031V177.611H521.777V4.32031H573.32Z" fill="white"/>
<path d="M513.145 4.32031L464.141 81.3809V177.611H412.598V81.3809L363.213 4.32031H415.518L437.861 39.9941L461.855 4.32031H513.145Z" fill="white"/>
<path d="M299.99 90.6445V136.348H285.137V177.607H233.594V67.4121C233.594 46.084 239.391 29.5378 250.986 17.7734C262.666 5.92448 279.043 0 300.117 0C320.43 0 335.452 5.37435 345.186 16.123C354.919 26.7871 359.785 43.291 359.785 65.6348V177.607H308.242V69.0625C308.242 62.2917 307.438 57.5944 305.83 54.9707C304.222 52.347 301.344 51.0352 297.197 51.0352C289.157 51.0352 285.137 57.0443 285.137 69.0625V90.6445H299.99Z" fill="white"/>
<path d="M146.25 4.32031H197.793V107.279C197.793 115.32 199.062 120.694 201.602 123.402C204.225 126.026 209.346 127.338 216.963 127.338H219.629V177.611H205.918C187.129 177.611 172.487 172.152 161.992 161.234C151.497 150.232 146.25 134.997 146.25 115.531V4.32031Z" fill="white"/>
<path d="M59.9219 117.686V72.2363C70.332 72.2363 75.5371 68.2585 75.5371 60.3027C75.5371 53.0241 71.5592 49.3848 63.6035 49.3848C55.5632 49.3848 51.543 54.3783 51.543 64.3652V177.607H0V69.6973C0 58.5254 1.10026 49.3848 3.30078 42.2754C5.58594 35.0814 9.43685 28.3952 14.8535 22.2168C20.9473 15.3613 28.5645 9.94466 37.7051 5.9668C46.8457 1.98893 56.2826 0 66.0156 0C83.6198 0 98.3887 5.92448 110.322 17.7734C122.34 29.6224 128.35 44.3066 128.35 61.8262C128.35 78.8379 122.975 92.6335 112.227 103.213C102.409 112.946 87.5977 117.812 67.793 117.812L59.9219 117.686Z" fill="white"/>
</svg>
