<svg width="1285" height="250" viewBox="0 0 1285 250" fill="none" xmlns="http://www.w3.org/2000/svg">
<path d="M1095.72 110.176V139.863H1069.84C1066.33 139.863 1063.82 140.384 1062.32 141.426C1060.89 142.467 1060.18 144.225 1060.18 146.699C1060.18 149.499 1060.92 151.354 1062.42 152.266C1063.92 153.112 1066.98 153.535 1071.6 153.535H1098.26V191.621H1067.11C1052.46 191.621 1041.26 188.138 1033.52 181.172C1025.77 174.141 1021.89 164.017 1021.89 150.801V98.5547C1021.89 85.7943 1025.54 75.8984 1032.83 68.8672C1040.19 61.8359 1050.51 58.3203 1063.79 58.3203H1098.26V96.6016H1072.97C1066.13 96.6016 1062.71 98.8151 1062.71 103.242C1062.71 105.846 1063.53 107.669 1065.16 108.711C1066.78 109.688 1069.68 110.176 1073.85 110.176H1095.72Z" fill="white"/>
<path d="M904.121 191.621V105.098C904.121 89.9284 908.646 77.7865 917.695 68.6719C926.81 59.5573 938.919 55 954.023 55C969.062 55 980.553 59.4271 988.496 68.2812C996.504 77.1354 1000.51 89.8633 1000.51 106.465V191.621H960.859V106.465C960.859 98.3268 957.962 94.2578 952.168 94.2578C946.569 94.2578 943.77 98.3268 943.77 106.465V191.621H904.121Z" fill="white"/>
<path d="M880.098 58.3203V191.621H840.449V58.3203H880.098Z" fill="white"/>
<path d="M767.305 105.977V141.133H756.27V191.621H716.621V58.3203H756.27V105.977H767.305ZM813.691 58.3203V191.621H774.043V58.3203H813.691Z" fill="white"/>
<path d="M647.48 145.527V110.566C655.488 110.566 659.492 107.507 659.492 101.387C659.492 95.7878 656.432 92.9883 650.312 92.9883C644.128 92.9883 641.035 96.8294 641.035 104.512V191.621H601.387V108.613C601.387 100.02 602.233 92.9883 603.926 87.5195C605.684 81.9857 608.646 76.8424 612.812 72.0898C617.5 66.8164 623.359 62.6497 630.391 59.5898C637.422 56.5299 644.681 55 652.168 55C665.71 55 677.07 59.5573 686.25 68.6719C695.495 77.7865 700.117 89.082 700.117 102.559C700.117 115.645 695.983 126.257 687.715 134.395C680.163 141.882 668.77 145.625 653.535 145.625L647.48 145.527Z" fill="white"/>
<path d="M534.102 124.727V159.883H522.676V191.621H483.027V106.855C483.027 90.4492 487.487 77.7214 496.406 68.6719C505.391 59.5573 517.988 55 534.199 55C549.824 55 561.38 59.1341 568.867 67.4023C576.354 75.6055 580.098 88.3008 580.098 105.488V191.621H540.449V108.125C540.449 102.917 539.831 99.3034 538.594 97.2852C537.357 95.2669 535.143 94.2578 531.953 94.2578C525.768 94.2578 522.676 98.8802 522.676 108.125V124.727H534.102Z" fill="white"/>
<path d="M405.684 94.1602V191.621H366.035V58.3203H416.914C432.409 58.3203 444.421 62.1615 452.949 69.8438C462.454 78.4375 467.207 89.3424 467.207 102.559C467.207 116.035 461.315 127.396 449.531 136.641L472.383 191.621H430.781L411.543 148.652V114.375H414.668C423.001 114.375 427.168 110.794 427.168 103.633C427.168 97.3177 422.35 94.1602 412.715 94.1602H405.684Z" fill="white"/>
<path d="M340.645 110.176V139.863H314.766C311.25 139.863 308.743 140.384 307.246 141.426C305.814 142.467 305.098 144.225 305.098 146.699C305.098 149.499 305.846 151.354 307.344 152.266C308.841 153.112 311.901 153.535 316.523 153.535H343.184V191.621H312.031C297.383 191.621 286.185 188.138 278.438 181.172C270.69 174.141 266.816 164.017 266.816 150.801V98.5547C266.816 85.7943 270.462 75.8984 277.754 68.8672C285.111 61.8359 295.43 58.3203 308.711 58.3203H343.184V96.6016H317.891C311.055 96.6016 307.637 98.8151 307.637 103.242C307.637 105.846 308.451 107.669 310.078 108.711C311.706 109.688 314.603 110.176 318.77 110.176H340.645Z" fill="white"/>
<path d="M249.336 57.7344V95.7227C246.471 94.7461 244.258 94.2578 242.695 94.2578C239.701 94.2578 237.129 95.3646 234.98 97.5781C232.832 99.7917 231.758 102.461 231.758 105.586C231.758 108.255 232.93 111.641 235.273 115.742L238.301 121.016C243.77 130.521 246.504 139.701 246.504 148.555C246.504 161.51 241.882 172.48 232.637 181.465C223.457 190.449 212.227 194.941 198.945 194.941C192.565 194.941 186.25 193.477 180 190.547V151.973C183.776 154.382 187.129 155.586 190.059 155.586C193.509 155.586 196.374 154.609 198.652 152.656C200.996 150.638 202.168 148.132 202.168 145.137C202.168 143.184 200.312 138.919 196.602 132.344C190.677 121.927 187.715 111.51 187.715 101.094C187.715 88.5286 192.174 77.7214 201.094 68.6719C210.078 59.5573 220.788 55 233.223 55C238.691 55 244.062 55.9115 249.336 57.7344Z" fill="white"/>
</svg>
