<svg width="1194" height="182" viewBox="0 0 1194 182" fill="none" xmlns="http://www.w3.org/2000/svg">
<path d="M1190.44 71.7324V110.326H1156.8C1152.23 110.326 1148.97 111.003 1147.02 112.357C1145.16 113.712 1144.23 115.997 1144.23 119.213C1144.23 122.852 1145.2 125.264 1147.15 126.449C1149.1 127.549 1153.07 128.1 1159.08 128.1H1193.74V177.611H1153.24C1134.2 177.611 1119.64 173.083 1109.57 164.027C1099.5 154.887 1094.46 141.726 1094.46 124.545V56.625C1094.46 40.0365 1099.2 27.1719 1108.68 18.0312C1118.25 8.89062 1131.66 4.32031 1148.93 4.32031H1193.74V54.0859H1160.86C1151.97 54.0859 1147.53 56.9635 1147.53 62.7188C1147.53 66.1042 1148.59 68.474 1150.7 69.8281C1152.82 71.0977 1156.59 71.7324 1162 71.7324H1190.44Z" fill="white"/>
<path d="M941.357 177.607V65.127C941.357 45.4069 947.24 29.6224 959.004 17.7734C970.853 5.92448 986.595 0 1006.23 0C1025.78 0 1040.72 5.75521 1051.04 17.2656C1061.46 28.776 1066.66 45.3223 1066.66 66.9043V177.607H1015.12V66.9043C1015.12 56.3249 1011.35 51.0352 1003.82 51.0352C996.54 51.0352 992.9 56.3249 992.9 66.9043V177.607H941.357Z" fill="white"/>
<path d="M910.127 4.32031V177.611H858.584V4.32031H910.127Z" fill="white"/>
<path d="M763.496 66.2734V111.977H749.15V177.611H697.607V4.32031H749.15V66.2734H763.496ZM823.799 4.32031V177.611H772.256V4.32031H823.799Z" fill="white"/>
<path d="M607.725 117.686V72.2363C618.135 72.2363 623.34 68.2585 623.34 60.3027C623.34 53.0241 619.362 49.3848 611.406 49.3848C603.366 49.3848 599.346 54.3783 599.346 64.3652V177.607H547.803V69.6973C547.803 58.5254 548.903 49.3848 551.104 42.2754C553.389 35.0814 557.24 28.3952 562.656 22.2168C568.75 15.3613 576.367 9.94466 585.508 5.9668C594.648 1.98893 604.085 0 613.818 0C631.423 0 646.191 5.92448 658.125 17.7734C670.143 29.6224 676.152 44.3066 676.152 61.8262C676.152 78.8379 670.778 92.6335 660.029 103.213C650.212 112.946 635.4 117.812 615.596 117.812L607.725 117.686Z" fill="white"/>
<path d="M460.332 90.6445V136.348H445.479V177.607H393.936V67.4121C393.936 46.084 399.733 29.5378 411.328 17.7734C423.008 5.92448 439.385 0 460.459 0C480.771 0 495.794 5.37435 505.527 16.123C515.26 26.7871 520.127 43.291 520.127 65.6348V177.607H468.584V69.0625C468.584 62.2917 467.78 57.5944 466.172 54.9707C464.564 52.347 461.686 51.0352 457.539 51.0352C449.499 51.0352 445.479 57.0443 445.479 69.0625V90.6445H460.332Z" fill="white"/>
<path d="M293.389 50.9121V177.611H241.846V4.32031H307.988C328.132 4.32031 343.747 9.3138 354.834 19.3008C367.191 30.4727 373.369 44.6491 373.369 61.8301C373.369 79.3496 365.71 94.1185 350.391 106.137L380.098 177.611H326.016L301.006 121.752V77.1914H305.068C315.902 77.1914 321.318 72.5365 321.318 63.2266C321.318 55.0169 315.055 50.9121 302.529 50.9121H293.389Z" fill="white"/>
<path d="M208.838 71.7324V110.326H175.195C170.625 110.326 167.367 111.003 165.42 112.357C163.558 113.712 162.627 115.997 162.627 119.213C162.627 122.852 163.6 125.264 165.547 126.449C167.493 127.549 171.471 128.1 177.48 128.1H212.139V177.611H171.641C152.598 177.611 138.04 173.083 127.969 164.027C117.897 154.887 112.861 141.726 112.861 124.545V56.625C112.861 40.0365 117.601 27.1719 127.08 18.0312C136.644 8.89062 150.059 4.32031 167.324 4.32031H212.139V54.0859H179.258C170.371 54.0859 165.928 56.9635 165.928 62.7188C165.928 66.1042 166.986 68.474 169.102 69.8281C171.217 71.0977 174.984 71.7324 180.4 71.7324H208.838Z" fill="white"/>
<path d="M90.1367 3.55469V52.9395C86.4128 51.6699 83.5352 51.0352 81.5039 51.0352C77.6107 51.0352 74.2676 52.474 71.4746 55.3516C68.6816 58.2292 67.2852 61.6992 67.2852 65.7617C67.2852 69.2318 68.8086 73.6328 71.8555 78.9648L75.791 85.8203C82.9004 98.1771 86.4551 110.111 86.4551 121.621C86.4551 138.464 80.446 152.725 68.4277 164.404C56.4941 176.084 41.8945 181.924 24.6289 181.924C16.3346 181.924 8.125 180.02 0 176.211V126.064C4.90885 129.196 9.26758 130.762 13.0762 130.762C17.5618 130.762 21.2858 129.492 24.248 126.953C27.2949 124.329 28.8184 121.071 28.8184 117.178C28.8184 114.639 26.4062 109.095 21.582 100.547C13.8802 87.0052 10.0293 73.4635 10.0293 59.9219C10.0293 43.5872 15.8268 29.5378 27.4219 17.7734C39.1016 5.92448 53.0241 0 69.1895 0C76.2988 0 83.2812 1.1849 90.1367 3.55469Z" fill="white"/>
</svg>
