<svg width="1285" height="250" viewBox="0 0 1285 250" fill="none" xmlns="http://www.w3.org/2000/svg">
<path d="M1051.09 58.3203V144.746C1051.09 159.98 1046.53 172.155 1037.41 181.27C1028.36 190.384 1016.29 194.941 1001.18 194.941C986.145 194.941 974.621 190.514 966.613 181.66C958.671 172.806 954.699 160.078 954.699 143.477V58.3203H994.348V143.379C994.348 151.517 997.245 155.586 1003.04 155.586C1008.64 155.586 1011.44 151.517 1011.44 143.379V58.3203H1051.09Z" fill="white"/>
<path d="M887.414 124.727V159.883H875.988V191.621H836.34V106.855C836.34 90.4492 840.799 77.7214 849.719 68.6719C858.703 59.5573 871.301 55 887.512 55C903.137 55 914.693 59.1341 922.18 67.4023C929.667 75.6055 933.41 88.3008 933.41 105.488V191.621H893.762V108.125C893.762 102.917 893.143 99.3034 891.906 97.2852C890.669 95.2669 888.456 94.2578 885.266 94.2578C879.081 94.2578 875.988 98.8802 875.988 108.125V124.727H887.414Z" fill="white"/>
<path d="M813.684 110.176V139.863H787.805C784.289 139.863 781.783 140.384 780.285 141.426C778.853 142.467 778.137 144.225 778.137 146.699C778.137 149.499 778.885 151.354 780.383 152.266C781.88 153.112 784.94 153.535 789.562 153.535H816.223V191.621H785.07C770.422 191.621 759.224 188.138 751.477 181.172C743.729 174.141 739.855 164.017 739.855 150.801V98.5547C739.855 85.7943 743.501 75.8984 750.793 68.8672C758.15 61.8359 768.469 58.3203 781.75 58.3203H816.223V96.6016H790.93C784.094 96.6016 780.676 98.8151 780.676 103.242C780.676 105.846 781.49 107.669 783.117 108.711C784.745 109.688 787.642 110.176 791.809 110.176H813.684Z" fill="white"/>
<path d="M628.332 58.3203H676.77C705.48 58.3203 719.836 69.6159 719.836 92.207C719.836 103.405 714.921 112.715 705.09 120.137C719.348 126.322 726.477 137.357 726.477 153.242C726.477 165.417 722.277 175.117 713.879 182.344C709.777 185.794 705.383 188.203 700.695 189.57C696.008 190.938 689.693 191.621 681.75 191.621H674.23V157.344H680.969C684.94 157.344 687.74 156.855 689.367 155.879C690.995 154.837 691.809 153.047 691.809 150.508C691.809 146.211 688.488 144.062 681.848 144.062H674.23V108.516C681.522 108.516 685.168 106.009 685.168 100.996C685.168 96.3737 681.88 94.0625 675.305 94.0625H667.98V191.621H628.332V58.3203Z" fill="white"/>
<path d="M602.941 110.176V139.863H577.062C573.547 139.863 571.04 140.384 569.543 141.426C568.111 142.467 567.395 144.225 567.395 146.699C567.395 149.499 568.143 151.354 569.641 152.266C571.138 153.112 574.198 153.535 578.82 153.535H605.48V191.621H574.328C559.68 191.621 548.482 188.138 540.734 181.172C532.987 174.141 529.113 164.017 529.113 150.801V98.5547C529.113 85.7943 532.759 75.8984 540.051 68.8672C547.408 61.8359 557.727 58.3203 571.008 58.3203H605.48V96.6016H580.188C573.352 96.6016 569.934 98.8151 569.934 103.242C569.934 105.846 570.747 107.669 572.375 108.711C574.003 109.688 576.9 110.176 581.066 110.176H602.941Z" fill="white"/>
<path d="M366.613 191.621V95.5273C366.613 83.6133 370.227 73.8802 377.453 66.3281C384.68 58.776 394.055 55 405.578 55C419.25 55 429.764 61.2826 437.121 73.8477C441.613 67.0768 446.431 62.2591 451.574 59.3945C456.717 56.4648 463.065 55 470.617 55C482.596 55 491.776 58.776 498.156 66.3281C504.536 73.8802 507.727 84.7526 507.727 98.9453V191.621H468.078V104.902C468.078 100.605 467.72 97.7734 467.004 96.4062C466.353 94.974 464.986 94.2578 462.902 94.2578C458.996 94.2578 457.043 97.5781 457.043 104.219V191.621H417.395V104.902C417.395 100.671 417.036 97.8385 416.32 96.4062C415.604 94.974 414.204 94.2578 412.121 94.2578C408.215 94.2578 406.262 97.806 406.262 104.902V191.621H366.613Z" fill="white"/>
<path d="M342.59 58.3203V191.621H302.941V58.3203H342.59Z" fill="white"/>
<path d="M258.02 96.6016V191.621H218.371V96.6016H188V58.3203H288.293V96.6016H258.02Z" fill="white"/>
</svg>
