<svg width="1123" height="182" viewBox="0 0 1123 182" fill="none" xmlns="http://www.w3.org/2000/svg">
<path d="M1122.01 4.32031V116.674C1122.01 136.479 1116.09 152.305 1104.24 164.154C1092.47 176.003 1076.77 181.928 1057.14 181.928C1037.59 181.928 1022.61 176.173 1012.2 164.662C1001.87 153.152 996.709 136.605 996.709 115.023V4.32031H1048.25V114.896C1048.25 125.476 1052.02 130.766 1059.55 130.766C1066.83 130.766 1070.47 125.476 1070.47 114.896V4.32031H1122.01Z" fill="white"/>
<path d="M909.238 90.6445V136.348H894.385V177.607H842.842V67.4121C842.842 46.084 848.639 29.5378 860.234 17.7734C871.914 5.92448 888.291 0 909.365 0C929.678 0 944.701 5.37435 954.434 16.123C964.167 26.7871 969.033 43.291 969.033 65.6348V177.607H917.49V69.0625C917.49 62.2917 916.686 57.5944 915.078 54.9707C913.47 52.347 910.592 51.0352 906.445 51.0352C898.405 51.0352 894.385 57.0443 894.385 69.0625V90.6445H909.238Z" fill="white"/>
<path d="M813.389 71.7324V110.326H779.746C775.176 110.326 771.917 111.003 769.971 112.357C768.109 113.712 767.178 115.997 767.178 119.213C767.178 122.852 768.151 125.264 770.098 126.449C772.044 127.549 776.022 128.1 782.031 128.1H816.689V177.611H776.191C757.148 177.611 742.591 173.083 732.52 164.027C722.448 154.887 717.412 141.726 717.412 124.545V56.625C717.412 40.0365 722.152 27.1719 731.631 18.0312C741.195 8.89062 754.609 4.32031 771.875 4.32031H816.689V54.0859H783.809C774.922 54.0859 770.479 56.9635 770.479 62.7188C770.479 66.1042 771.536 68.474 773.652 69.8281C775.768 71.0977 779.535 71.7324 784.951 71.7324H813.389Z" fill="white"/>
<path d="M572.432 4.32031H635.4C672.725 4.32031 691.387 19.0046 691.387 48.373C691.387 62.9303 684.997 75.0332 672.217 84.6816C690.752 92.722 700.02 107.068 700.02 127.719C700.02 143.546 694.561 156.156 683.643 165.551C678.311 170.036 672.598 173.168 666.504 174.945C660.41 176.723 652.201 177.611 641.875 177.611H632.1V133.051H640.859C646.022 133.051 649.661 132.416 651.777 131.146C653.893 129.792 654.951 127.465 654.951 124.164C654.951 118.578 650.635 115.785 642.002 115.785H632.1V69.5742C641.579 69.5742 646.318 66.3158 646.318 59.7988C646.318 53.7897 642.044 50.7852 633.496 50.7852H623.975V177.611H572.432V4.32031Z" fill="white"/>
<path d="M539.424 71.7324V110.326H505.781C501.211 110.326 497.952 111.003 496.006 112.357C494.144 113.712 493.213 115.997 493.213 119.213C493.213 122.852 494.186 125.264 496.133 126.449C498.079 127.549 502.057 128.1 508.066 128.1H542.725V177.611H502.227C483.184 177.611 468.626 173.083 458.555 164.027C448.483 154.887 443.447 141.726 443.447 124.545V56.625C443.447 40.0365 448.187 27.1719 457.666 18.0312C467.23 8.89062 480.645 4.32031 497.91 4.32031H542.725V54.0859H509.844C500.957 54.0859 496.514 56.9635 496.514 62.7188C496.514 66.1042 497.572 68.474 499.688 69.8281C501.803 71.0977 505.57 71.7324 510.986 71.7324H539.424Z" fill="white"/>
<path d="M232.197 177.607V52.6855C232.197 37.1973 236.895 24.5443 246.289 14.7266C255.684 4.90885 267.871 0 282.852 0C300.625 0 314.294 8.16732 323.857 24.502C329.697 15.6999 335.96 9.43685 342.646 5.71289C349.333 1.9043 357.585 0 367.402 0C382.975 0 394.909 4.90885 403.203 14.7266C411.497 24.5443 415.645 38.6784 415.645 57.1289V177.607H364.102V64.873C364.102 59.2871 363.636 55.6055 362.705 53.8281C361.859 51.9661 360.081 51.0352 357.373 51.0352C352.295 51.0352 349.756 55.3516 349.756 63.9844V177.607H298.213V64.873C298.213 59.3717 297.747 55.6901 296.816 53.8281C295.885 51.9661 294.066 51.0352 291.357 51.0352C286.279 51.0352 283.74 55.6478 283.74 64.873V177.607H232.197Z" fill="white"/>
<path d="M200.967 4.32031V177.611H149.424V4.32031H200.967Z" fill="white"/>
<path d="M91.0254 54.0859V177.611H39.4824V54.0859H0V4.32031H130.381V54.0859H91.0254Z" fill="white"/>
</svg>
